<svg t="1676144061386" class="icon" viewBox="0 0 1024 1024" version="1.1" xmlns="http://www.w3.org/2000/svg" p-id="4518" width="32" height="32"><path d="M284.342857 1024c-47.542857 0-93.485714-5.714286-129.485714-16.228571-51.428571-14.971429-82.514286-39.428571-92.571429-72.8-10.171429-33.942857 2.971429-69.485714 38.971429-105.714286 4.114286-4.114286 8.457143-8.228571 13.142857-12.342857-23.428571-25.828571-43.085714-55.085714-58.628571-87.657143-26.285714-54.971429-39.542857-116.914286-39.542858-184 0-127.542857 44.228571-244.571429 128-338.4C215.771429 126.628571 313.142857 68.8 411.428571 48.342857c8.571429-1.942857 11.2-4.914286 18.628572-13.6C440.457143 22.628571 459.885714 0 495.428571 0c4.914286 0 9.942857 0.457143 14.971429 1.371429C574.857143 12.8 637.714286 34.628571 697.142857 66.285714c59.2 31.542857 112.342857 71.542857 157.942857 118.628572 47.428571 49.028571 84.571429 103.885714 110.628572 162.971428 27.771429 63.314286 41.942857 129.6 41.942857 197.257143 0 67.428571-13.942857 130.057143-41.371429 186.057143-15.657143 32-36 61.6-59.771428 87.542857 5.485714 4.571429 10.514286 9.028571 15.2 13.371429 14.057143 13.371429 24.342857 26.057143 31.428571 38.971428 15.085714 27.428571 12.8 50.4 8.228572 64.8-6.285714 19.771429-20.342857 36.228571-41.828572 49.028572-14.171429 8.457143-32.114286 15.542857-53.485714 21.142857-36.8 9.6-83.085714 14.628571-133.6 14.628571-48.914286 0-97.942857-4.914286-141.714286-14.057143-36.114286-7.542857-67.657143-17.828571-94.171428-30.628571-70.857143 42.857143-169.142857 48-212.228572 48z" fill="#25467A" p-id="4519"></path><path d="M806.514286 811.428571c-120.114286-69.485714-300.457143-82.742857-347.314286-14.628571-15.2 22.171429-17.257143 54.4-3.771429 80.685714C516.571429 995.428571 890.971429 992 913.485714 921.028571c12.8-40.228571-89.142857-99.2-106.971428-109.6z" fill="#95D13C" p-id="4520"></path><path d="M202.971429 813.6c105.142857-66.971429 264.914286-76.457143 307.885714-7.885714 13.942857 22.4 16.457143 54.514286 4.914286 80.457143-51.657143 116.457143-384.114286 105.257143-405.485715 34.4-12.114286-40.114286 77.028571-96.914286 92.685715-106.971429z" fill="#B4E876" p-id="4521"></path><path d="M501.6 50.628571c-33.714286-5.942857-29.942857 35.771429-79.771429 46.628572C255.085714 132 66.285714 294.514286 66.285714 545.371429c0 264.342857 231.771429 397.028571 445.6 311.428571 204.457143 91.657143 445.6-47.2 445.6-311.428571-0.114286-250.857143-217.142857-452.457143-455.885714-494.742858z" fill="#F8D0C3" p-id="4522"></path><path d="M957.485714 545.371429c0 264.228571-241.142857 403.085714-445.6 311.428571-171.542857 68.685714-354.628571-3.2-420.342857-170.742857 88.914286 76 204.342857 121.828571 330.4 121.828571 253.6 0 463.885714-185.485714 502.628572-428.114285 21.142857 51.542857 32.914286 107.2 32.914285 165.6z" fill="#EDC7BA" p-id="4523"></path><path d="M511.771429 536.8c-37.371429 0-67.657143-30.285714-67.657143-67.657143 0-7.542857 6.057143-13.485714 13.485714-13.485714 7.542857 0 13.485714 6.057143 13.485714 13.485714 0 22.514286 18.285714 40.571429 40.571429 40.571429 22.4 0 40.571429-18.171429 40.571428-40.571429 0-7.542857 6.057143-13.485714 13.485715-13.485714 7.542857 0 13.485714 6.057143 13.485714 13.485714 0.228571 37.371429-30.057143 67.657143-67.428571 67.657143z" fill="#25467A" p-id="4524"></path><path d="M376.457143 360.914286m-40.571429 0a40.571429 40.571429 0 1 0 81.142857 0 40.571429 40.571429 0 1 0-81.142857 0Z" fill="#25467A" p-id="4525"></path><path d="M647.2 360.914286m-40.571429 0a40.571429 40.571429 0 1 0 81.142858 0 40.571429 40.571429 0 1 0-81.142858 0Z" fill="#25467A" p-id="4526"></path><path d="M322.4 428.571429h-54.171429c-14.971429 0-27.085714 12.114286-27.085714 27.085714s12.114286 27.085714 27.085714 27.085714h54.171429c14.971429 0 27.085714-12.114286 27.085714-27.085714S337.371429 428.571429 322.4 428.571429zM755.428571 428.571429h-54.171428c-14.971429 0-27.085714 12.114286-27.085714 27.085714s12.114286 27.085714 27.085714 27.085714H755.428571c14.971429 0 27.085714-12.114286 27.085715-27.085714S770.4 428.571429 755.428571 428.571429z" fill="#F87EAC" p-id="4527">
<path d="M33.085 26.4833V12.3831H37.9541C39.6408 12.3831 40.9202 12.7123 41.7922 13.3709C42.6642 14.0229 43.1002 14.9817 43.1002 16.247C43.1002 16.9379 42.9251 17.548 42.5751 18.0774C42.225 18.6004 41.7381 18.9845 41.1143 19.2298C41.8272 19.4106 42.3873 19.7753 42.7947 20.3242C43.2084 20.8729 43.4152 21.5444 43.4152 22.3384C43.4152 23.6942 42.9888 24.7208 42.1359 25.418C41.283 26.1153 40.0673 26.4704 38.4888 26.4833H33.085ZM35.9492 20.3435V24.1494H38.4028C39.0775 24.1494 39.6026 23.988 39.9781 23.6652C40.36 23.3359 40.551 22.884 40.551 22.3094C40.551 21.0182 39.8922 20.3629 38.5747 20.3435H35.9492ZM35.9492 18.2904H38.0687C39.5135 18.2646 40.236 17.6803 40.236 16.5376C40.236 15.8984 40.0514 15.4401 39.6822 15.1624C39.3194 14.8784 38.7434 14.7363 37.9541 14.7363H35.9492V18.2904ZM53.9365 20.3725H48.4371V24.1494H54.8913V26.4833H45.573V12.3831H54.8723V14.7363H48.4371V18.0968H53.9365V20.3725ZM61.7175 21.3216H59.436V26.4833H56.5717V12.3831H61.7365C63.379 12.3831 64.6455 12.7543 65.5365 13.4967C66.4276 14.2392 66.8734 15.2883 66.8734 16.6441C66.8734 17.6061 66.6661 18.4099 66.2527 19.0555C65.8455 19.6946 65.2248 20.2047 64.3907 20.5856L67.3985 26.3477V26.4833H64.3242L61.7175 21.3216ZM59.436 18.9683H61.746C62.4656 18.9683 63.0226 18.7843 63.417 18.4164C63.8114 18.0419 64.0092 17.5286 64.0092 16.8766C64.0092 16.2116 63.8214 15.6886 63.4455 15.3077C63.0768 14.9268 62.5069 14.7363 61.7365 14.7363H59.436V18.9683ZM74.2058 21.3216H71.9237V26.4833H69.0594V12.3831H74.2248C75.8667 12.3831 77.1337 12.7543 78.0248 13.4967C78.9159 14.2392 79.3611 15.2883 79.3611 16.6441C79.3611 17.6061 79.1544 18.4099 78.7404 19.0555C78.3332 19.6946 77.7125 20.2047 76.879 20.5856L79.8863 26.3477V26.4833H76.8119L74.2058 21.3216ZM71.9237 18.9683H74.2343C74.9533 18.9683 75.5103 18.7843 75.9052 18.4164C76.2997 18.0419 76.4969 17.5286 76.4969 16.8766C76.4969 16.2116 76.3092 15.6886 75.9337 15.3077C75.5645 14.9268 74.9946 14.7363 74.2248 14.7363H71.9237V18.9683ZM85.8823 18.7359L88.7751 12.3831H91.9064L87.3427 21.3701V26.4833H84.4309V21.3701L79.8673 12.3831H83.008L85.8823 18.7359Z" fill="white"/>
<path d="M10.987 31.5834C4.92849 31.5834 0 26.6253 0 20.5316C0 14.4378 4.92899 9.47974 10.987 9.47974C17.045 9.47974 21.974 14.4378 21.974 20.5316C21.974 26.6253 17.0459 31.5834 10.987 31.5834ZM10.987 10.5353C5.50765 10.5353 1.04938 15.019 1.04938 20.5311C1.04938 26.0433 5.50765 30.5269 10.987 30.5269C16.4663 30.5269 20.9251 26.0423 20.9251 20.5301C20.9251 15.0179 16.4673 10.5353 10.987 10.5353Z" fill="white"/>
<path d="M18.96 21.0218C18.6182 19.7476 15.4851 19.6101 13.6203 20.0772C12.6437 20.3228 11.6456 20.642 10.6162 20.8257C11.3697 21.4982 12.1788 22.1343 13.34 22.2924C16.2211 22.6834 18.0112 21.7743 18.96 21.0218Z" fill="white"/>
<path d="M13.34 22.2924C12.1764 22.1342 11.3697 21.4982 10.6162 20.8257C9.45013 19.7849 8.41298 18.6571 6.37723 19.0815C3.14069 19.7564 2.71488 23.6073 5.21404 26.082C6.28706 27.2123 7.66455 28.0033 9.17779 28.3578C10.691 28.7124 12.2742 28.6152 13.7333 28.0782C15.1924 27.5411 16.4641 26.5876 17.3925 25.3344C18.3209 24.0811 18.8656 22.5827 18.96 21.0227C18.0112 21.7742 16.221 22.6834 13.34 22.2924Z" fill="white"/>
<path d="M15.0335 13.9579C14.6296 14.8288 18.2299 15.795 18.6606 18.6871C18.8682 15.8401 15.533 12.8812 15.0335 13.9579Z" fill="white"/>
<path d="M7.46619 17.5928C8.11524 17.3224 8.42345 16.5739 8.15463 15.921C7.8858 15.2681 7.14167 14.958 6.49262 15.2285C5.84357 15.4989 5.53536 16.2474 5.80418 16.9003C6.07306 17.5532 6.81714 17.8632 7.46619 17.5928Z" fill="white"/>
<path d="M10.3544 14.0793C10.658 13.7739 10.658 13.2789 10.3544 12.9734C10.0508 12.668 9.5586 12.668 9.25503 12.9734C8.95145 13.2789 8.95145 13.7739 9.25503 14.0793C9.5586 14.3847 10.0508 14.3847 10.3544 14.0793Z" fill="white"/>
<path d="M13.1009 9.05139C14.224 5.71423 13.4691 3.04803 11.1609 1.78174C9.5831 2.10445 8.64651 2.87268 8.125 3.93316C11.2199 3.68118 13.1839 5.62974 13.1009 9.05139Z" fill="white"/>
<path d="M25.6988 6.13562C20.1394 4.1286 16.6309 4.81676 16.0791 9.38976C19.2653 12.6965 22.4745 11.1138 25.6988 6.13562Z" fill="white"/>
<path d="M21.2765 4.32468C21.5343 3.21655 21.6681 1.90702 21.6881 0.416748C15.9226 1.7081 13.3224 4.17584 15.2839 8.33773C15.3816 8.3613 15.4754 8.38045 15.5696 8.40012C16.0281 5.14348 18.0463 3.93762 21.2765 4.32468Z" fill="white"/>
</svg>
