<svg t="1676118151180" class="icon" viewBox="0 0 1024 1024" version="1.1" xmlns="http://www.w3.org/2000/svg" p-id="4470" width="32" height="32"><path d="M510.198362 35.458786c-263.740666 0-478.310964 214.570299-478.310964 478.310965 0 56.392863 9.805375 110.537664 27.821754 160.82409 38.344596 4.001868 86.829384 9.789431 137.753558 17.665618 1.721919-4.22508 3.523557-8.418273 5.420857-12.563635 60.665774-132.63563 195.581353-186.700713 250.778439-203.776414 30.213309-9.327064 62.642793 1.945131 82.668078 28.79432 30.484352 40.879644 50.764737 36.032759 57.445147 34.438389h0.015944c23.070532-5.532463 48.022421-3.49167 70.231993 5.81945 67.712889 28.379784 123.101299 92.154579 154.621991 171.570143 48.835549-7.461651 95.215769-13.010058 132.300813-16.900321C975.116619 642.467287 988.509326 579.649114 988.509326 513.769751c0-263.740666-214.570299-478.310964-478.310964-478.310965z m392.262822 301.893937c-0.956622 0.478311-1.753807 0.956622-2.869866 1.434933-0.956622 0.318874-1.913244 0.637748-2.869866 0.797185-1.116059 0.318874-2.072681 0.318874-3.188739 0.318874-0.956622 0-2.072681 0-3.029303-0.318874-1.116059-0.159437-2.072681-0.478311-3.029303-0.797185-0.956622-0.478311-1.913244-0.956622-2.710429-1.434933-0.956622-0.637748-1.753807-1.275496-2.391555-2.072681-1.59437-1.434933-2.710429-3.18874-3.507613-5.101983-0.797185-2.072681-1.275496-3.985925-1.275496-6.218043 0-4.145362 1.753807-8.290723 4.783109-11.160589 0.637748-0.797185 1.434933-1.434933 2.391555-2.072681 0.797185-0.478311 1.753807-0.956622 2.710429-1.434933 0.956622-0.318874 1.913244-0.637748 3.029303-0.956622 2.072681-0.318874 4.145362-0.318874 6.218042 0l2.869866 0.956622c1.116059 0.478311 1.913244 0.956622 2.869866 1.434933 0.797185 0.637748 1.59437 1.275496 2.391555 2.072681 3.029303 2.869866 4.623673 7.015227 4.623672 11.160589 0 2.232118-0.318874 4.145362-1.116058 6.218043-0.956622 1.913244-2.072681 3.667051-3.507614 5.101983-0.797185 0.797185-1.59437 1.434933-2.391555 2.072681z m20.009342 313.867655c-1.849469 0-3.714882-0.334818-5.548407-1.004453-8.258836-3.06119-12.467972-12.244761-9.390839-20.503597 48.676112-131.041261 1.004453-235.743531 0.526142-236.795814-3.730826-7.971849-0.30293-17.45835 7.652976-21.189176 7.955906-3.762713 17.426463-0.350761 21.189175 7.605144 2.232118 4.719335 54.065083 117.32968 0.526142 261.476661-2.391555 6.425311-8.482048 10.411235-14.955189 10.411235z" fill="#F3A6A7" p-id="4471"></path><path d="M510.198362 1023.968113C228.425373 1023.968113 0.015944 795.558683 0 513.785694v0.015944c0 281.772989 228.425373 510.198362 510.198362 510.198362s510.198362-228.425373 510.198362-510.198362v-0.015944c-0.015944 281.772989-228.425373 510.182418-510.198362 510.182419z" fill="#F3A6A7" p-id="4472"></path><path d="M936.88363 379.332482c-3.762713-7.955906-13.249214-11.351914-21.189176-7.605144-7.955906 3.730826-11.383801 13.23327-7.652975 21.189176 0.478311 1.03634 48.14997 105.738611-0.526143 236.795814-3.06119 8.258836 1.147946 17.426463 9.390839 20.503597 1.833525 0.669635 3.698938 1.004453 5.548407 1.004453 6.473142 0 12.563635-3.985925 14.95519-10.395292 53.554884-144.162925 1.705976-256.773269-0.526142-261.492604zM909.476411 323.960016c0-4.145362-1.59437-8.290723-4.623672-11.160589-0.797185-0.797185-1.59437-1.434933-2.391555-2.072681-0.956622-0.478311-1.753807-0.956622-2.869866-1.434933l-2.869866-0.956622c-2.072681-0.318874-4.145362-0.318874-6.218042 0-1.116059 0.318874-2.072681 0.637748-3.029303 0.956622-0.956622 0.478311-1.913244 0.956622-2.710429 1.434933-0.956622 0.637748-1.753807 1.275496-2.391555 2.072681-3.029303 2.869866-4.78311 7.015227-4.783109 11.160589 0 2.232118 0.478311 4.145362 1.275496 6.218043 0.797185 1.913244 1.913244 3.667051 3.507613 5.101983 0.637748 0.797185 1.434933 1.434933 2.391555 2.072681 0.797185 0.478311 1.753807 0.956622 2.710429 1.434933 0.956622 0.318874 1.913244 0.637748 3.029303 0.797185 0.956622 0.318874 2.072681 0.318874 3.029303 0.318874 1.116059 0 2.072681 0 3.188739-0.318874 0.956622-0.159437 1.913244-0.478311 2.869866-0.797185 1.116059-0.478311 1.913244-0.956622 2.869866-1.434933 0.797185-0.637748 1.59437-1.275496 2.391555-2.072681 1.434933-1.434933 2.550992-3.18874 3.507614-5.101983 0.797185-2.072681 1.116059-3.985925 1.116058-6.218043z" fill="#FFFFFF" p-id="4473"></path><path d="M174.647277 854.311214c-3.746769-46.603432 0.255099-90.273223 11.989661-130.833993-36.734282-5.771619-74.935384-10.937377-113.439417-15.274063 24.537352 54.926042 59.135179 104.415284 101.449756 146.108056zM829.502818 747.727587c10.156136 33.465824 16.198798 69.05216 17.362688 105.483511 35.203687-34.932644 65.034347-75.270202 88.10488-119.673403-35.761716 4.081587-71.236446 8.864697-105.467568 14.189892z" fill="#A5C03D" p-id="4474"></path><path d="M730.556223 938.238844c49.106592-241.196276-87.54685-293.204621-88.981783-293.730763-8.306667-2.965528-12.611466-12.085324-9.629994-20.376047 2.981472-8.306667 12.133155-12.627409 20.376047-9.629994 6.696354 2.391555 153.442157 58.114782 114.475758 302.786784 16.756827-10.698222 32.796188-22.400897 48.054308-35.028306 0.350761-7.971849 0.446424-16.055305 0.271043-24.282254-2.837978-127.836577-70.040669-244.44879-163.438857-283.590571-16.007474-6.712297-33.896304-8.211005-50.461806-4.22508-16.72494 4.049699-33.210725 1.482764-49.297917-7.5892C510.804223 715.425653 409.75306 823.4761 291.610251 823.4761c-29.990097 0-58.864136-6.967396-85.95248-19.849905-1.307383 26.370878 0.366705 53.985364 5.022265 82.811572 82.03033 66.070688 186.25429 105.658892 299.53427 105.658892 79.39962-0.015944 154.350948-19.467256 220.341917-53.857815z m-86.494566-233.957836c7.206552-5.038209 17.075701-3.300346 22.129854 3.890262 1.562482 2.232118 38.280821 55.675396 25.254819 139.858126-1.323327 8.545823-9.199514 14.444991-17.713449 13.392707-0.159437-0.015944-0.318874-0.047831-0.478311-0.063775-8.70526-1.339271-14.668203-9.502444-13.312989-18.19176 10.985208-70.885685-19.562918-116.261452-19.881792-116.707875-4.990378-7.254383-3.204683-17.171364 4.001868-22.177685zM608.331828 682.709183c0.526142-4.272911 2.75826-8.019681 6.138324-10.650391 4.814997-3.906206 12.117211-4.448292 17.681562-1.355214 1.801638 1.03634 3.380064 2.503161 4.639617 4.113474 2.63071 3.380064 3.714882 7.525426 3.188739 11.798337-0.255099 2.056737-0.813129 4.065643-1.849469 5.867282-1.020397 1.801638-2.503161 3.380064-4.09753 4.623672-1.626257 1.403045-3.507614 2.311836-5.500576 2.853922-2.152399 0.526142-4.272911 0.765298-6.329649 0.510199-0.940678-0.111606-2.040793-0.414536-2.965528-0.685579-1.068228-0.446424-1.992962-0.73341-2.885809-1.323327-0.892847-0.589917-1.785694-1.179834-2.519105-1.753807-0.876903-0.749354-1.578426-1.482764-2.120512-2.359668-1.403045-1.610314-2.295893-3.49167-2.853922-5.484632-0.558029-1.977019-0.781241-4.097531-0.526142-6.154268z" fill="#EA5654" p-id="4475"></path><path d="M551.907078 562.557469c-14.062342-7.939962-27.821754-20.886245-41.16663-38.791019-9.167627-12.292592-22.464672-19.164326-35.968985-19.164326-3.906206 0-7.8443 0.573973-11.686731 1.76975-51.099555 15.816149-175.906829 65.656152-231.199576 186.589108-15.529163 33.960078-24.282253 70.901629-26.243329 110.665213 27.088344 12.882509 55.962383 19.849905 85.952481 19.849905 118.126865-0.015944 219.178028-108.066391 260.31277-260.918631z" fill="#E3413E" p-id="4476"></path><path d="M510.198362 3.571389C228.425373 3.571389 0 231.996761 0 513.769751v0.015943c0.015944 281.757045 228.425373 510.182418 510.198362 510.182419s510.182418-228.409429 510.198362-510.182419v-0.015943c0-281.772989-228.425373-510.198362-510.198362-510.198362z m0 988.509326c-113.295924 0-217.503939-39.588204-299.53427-105.658892-4.65556-28.810264-6.329648-56.42475-5.022265-82.811572 1.961075-39.763585 10.714166-76.705135 26.243329-110.665213 55.292747-120.917012 180.100022-170.757014 231.199576-186.589107 3.842431-1.195777 7.780525-1.769751 11.686731-1.769751 13.504313 0 26.801358 6.871734 35.968985 19.164326 13.344876 17.904774 27.104288 30.835114 41.16663 38.791019 16.087192 9.087908 32.572977 11.6389 49.297917 7.589201 16.565503-3.985925 34.454333-2.487217 50.461807 4.22508 93.398188 39.157724 160.600878 155.769937 163.438856 283.590571 0.175381 8.226949 0.095662 16.310404-0.271043 24.282253-15.25812 12.627409-31.297481 24.330084-48.054308 35.028306 38.982344-244.687946-107.779404-300.395229-114.475757-302.786784-8.258836-2.997415-17.410519 1.323327-20.376048 9.629994-2.981472 8.290723 1.339271 17.410519 9.629995 20.376047 1.434933 0.510198 138.088375 52.534488 88.981783 293.730764-65.975026 34.422446-140.926354 53.873758-220.341918 53.873758zM186.636938 723.461277c-11.734562 40.56077-15.736431 84.230561-11.989661 130.833993C132.3327 812.618441 97.734874 763.1292 73.197521 708.187214c38.504033 4.35263 76.721079 9.502444 113.439417 15.274063z m660.228568 129.749821c-1.16389-36.431352-7.206552-72.017688-17.362688-105.483511 34.231121-5.325195 69.705851-10.108305 105.467568-14.189892-23.070532 44.387257-52.885249 84.740759-88.10488 119.673403z m-28.252234-136.68533C787.092579 637.110205 731.70417 573.335409 663.991281 544.955625c-22.225516-9.295176-47.161461-11.33597-70.231993-5.81945h-0.015944c-6.68041 1.59437-26.944851 6.441254-57.445147-34.438389-20.025286-26.849189-52.454769-38.137328-82.668078-28.79432C398.433033 492.979167 263.517454 547.04425 202.85168 679.67988c-1.8973 4.145362-3.698938 8.338554-5.420858 12.563635-50.924174-7.876187-99.408962-13.66375-137.753557-17.665618C41.692772 624.307414 31.887398 570.162613 31.887398 513.769751c0-263.740666 214.570299-478.310964 478.310964-478.310965s478.310964 214.570299 478.310964 478.310965c0 65.879363-13.392707 128.697537-37.595241 185.87164-37.085043 3.890263-83.481207 9.422726-132.300813 16.884377z" fill="#333333" p-id="4477"></path><path d="M640.043845 726.442749c0.318874 0.446424 30.851057 45.82219 19.881793 116.707875-1.355214 8.689316 4.607729 16.85249 13.312988 18.191761 0.159437 0.031887 0.318874 0.047831 0.478311 0.063774 8.513935 1.052284 16.390122-4.846884 17.713449-13.392707 13.026002-84.18273-23.676393-137.626008-25.254818-139.858125-5.070096-7.190608-14.923302-8.928471-22.129854-3.890263-7.190608 5.022265-8.976302 14.939246-4.001869 22.177685zM611.711892 694.364027c0.542086 0.876903 1.243609 1.610314 2.120512 2.359667 0.73341 0.573973 1.626257 1.16389 2.519105 1.753807 0.892847 0.589917 1.817582 0.86096 2.885809 1.323327 0.924735 0.271043 2.02485 0.573973 2.965528 0.685579 2.056737 0.255099 4.177249 0.031887 6.329649-0.510198 1.992962-0.558029 3.874319-1.450877 5.500576-2.853922 1.59437-1.243609 3.077134-2.822035 4.09753-4.623673 1.03634-1.801638 1.59437-3.826488 1.849469-5.867281 0.526142-4.272911-0.558029-8.418273-3.188739-11.798337-1.259552-1.610314-2.837978-3.077134-4.639617-4.113474-5.564351-3.093078-12.850621-2.550992-17.681562 1.355214-3.380064 2.63071-5.612182 6.37748-6.138324 10.650391-0.255099 2.056737-0.031887 4.177249 0.526142 6.170211 0.558029 1.977019 1.434933 3.858375 2.853922 5.468689z" fill="#FFFFFF" p-id="4478"></path></svg>