<svg t="1676143886027" class="icon" viewBox="0 0 1024 1024" version="1.1" xmlns="http://www.w3.org/2000/svg" p-id="4349" width="32" height="32"><path d="M284.342857 1024c-47.542857 0-93.485714-5.714286-129.485714-16.228571-51.428571-14.971429-82.514286-39.428571-92.571429-72.8-10.171429-33.942857 2.971429-69.485714 38.971429-105.714286 4.114286-4.114286 8.457143-8.228571 13.142857-12.342857-23.428571-25.828571-43.085714-55.085714-58.628571-87.657143-26.285714-54.971429-39.542857-116.914286-39.542858-184 0-127.542857 44.228571-244.571429 128-338.4C215.771429 126.628571 313.142857 68.8 411.428571 48.342857c8.571429-1.942857 11.2-4.914286 18.628572-13.6C440.457143 22.628571 459.885714 0 495.428571 0c4.914286 0 9.942857 0.457143 14.971429 1.371429C574.857143 12.8 637.714286 34.628571 697.142857 66.285714c59.2 31.542857 112.342857 71.542857 157.942857 118.628572 47.428571 49.028571 84.571429 103.885714 110.628572 162.971428 27.771429 63.314286 41.942857 129.6 41.942857 197.257143 0 67.428571-13.942857 130.057143-41.371429 186.057143-15.657143 32-36 61.6-59.771428 87.542857 5.485714 4.571429 10.514286 9.028571 15.2 13.371429 14.057143 13.371429 24.342857 26.057143 31.428571 38.971428 15.085714 27.428571 12.8 50.4 8.228572 64.8-6.285714 19.771429-20.342857 36.228571-41.828572 49.028572-14.171429 8.457143-32.114286 15.542857-53.485714 21.142857-36.8 9.6-83.085714 14.628571-133.6 14.628571-48.914286 0-97.942857-4.914286-141.714286-14.057143-36.114286-7.542857-67.657143-17.828571-94.171428-30.628571-70.857143 42.857143-169.142857 48-212.228572 48z" fill="#25467A" p-id="4350"></path><path d="M806.514286 811.428571c-120.114286-69.485714-300.457143-82.742857-347.314286-14.628571-15.2 22.171429-17.257143 54.4-3.771429 80.685714C516.571429 995.428571 890.971429 992 913.485714 921.028571c12.8-40.228571-89.142857-99.2-106.971428-109.6z" fill="#95D13C" p-id="4351"></path><path d="M202.971429 813.6c105.142857-66.971429 264.914286-76.457143 307.885714-7.885714 13.942857 22.4 16.457143 54.514286 4.914286 80.457143-51.657143 116.457143-384.114286 105.257143-405.485715 34.4-12.114286-40.114286 77.028571-96.914286 92.685715-106.971429z" fill="#B4E876" p-id="4352"></path><path d="M501.6 50.628571c-33.714286-5.942857-29.942857 35.771429-79.771429 46.628572C255.085714 132 66.285714 294.514286 66.285714 545.371429c0 264.342857 231.771429 397.028571 445.6 311.428571 204.457143 91.657143 445.6-47.2 445.6-311.428571-0.114286-250.857143-217.142857-452.457143-455.885714-494.742858z" fill="#F8D0C3" p-id="4353"></path><path d="M957.485714 545.371429c0 264.228571-241.142857 403.085714-445.6 311.428571-171.542857 68.685714-354.628571-3.2-420.342857-170.742857 88.914286 76 204.342857 121.828571 330.4 121.828571 253.6 0 463.885714-185.485714 502.628572-428.114285 21.142857 51.542857 32.914286 107.2 32.914285 165.6z" fill="#EDC7BA" p-id="4354"></path><path d="M511.771429 536.8c-37.371429 0-67.657143-30.285714-67.657143-67.657143 0-7.542857 6.057143-13.485714 13.485714-13.485714 7.542857 0 13.485714 6.057143 13.485714 13.485714 0 22.514286 18.285714 40.571429 40.571429 40.571429 22.4 0 40.571429-18.171429 40.571428-40.571429 0-7.542857 6.057143-13.485714 13.485715-13.485714 7.542857 0 13.485714 6.057143 13.485714 13.485714 0.228571 37.371429-30.057143 67.657143-67.428571 67.657143z" fill="#25467A" p-id="4355"></path><path d="M376.457143 360.914286m-40.571429 0a40.571429 40.571429 0 1 0 81.142857 0 40.571429 40.571429 0 1 0-81.142857 0Z" fill="#25467A" p-id="4356"></path><path d="M647.2 360.914286m-40.571429 0a40.571429 40.571429 0 1 0 81.142858 0 40.571429 40.571429 0 1 0-81.142858 0Z" fill="#25467A" p-id="4357"></path><path d="M322.4 428.571429h-54.171429c-14.971429 0-27.085714 12.114286-27.085714 27.085714s12.114286 27.085714 27.085714 27.085714h54.171429c14.971429 0 27.085714-12.114286 27.085714-27.085714S337.371429 428.571429 322.4 428.571429zM755.428571 428.571429h-54.171428c-14.971429 0-27.085714 12.114286-27.085714 27.085714s12.114286 27.085714 27.085714 27.085714H755.428571c14.971429 0 27.085714-12.114286 27.085715-27.085714S770.4 428.571429 755.428571 428.571429z" fill="#F87EAC" p-id="4358">
<g clip-path="url(#clip0)">
<path d="M19.6667 55C8.82205 55 0 46.2504 0 35.4968C0 24.7431 8.82292 15.9935 19.6667 15.9935C30.5105 15.9935 39.3334 24.7431 39.3334 35.4968C39.3334 46.2504 30.5122 55 19.6667 55ZM19.6667 17.8563C9.8587 17.8563 1.87839 25.7686 1.87839 35.4959C1.87839 45.2233 9.8587 53.1355 19.6667 53.1355C29.4747 53.1355 37.4559 45.2215 37.4559 35.4942C37.4559 25.7668 29.4765 17.8563 19.6667 17.8563Z" fill="#2196F3"/>
<path d="M33.9387 36.3618C33.3269 34.1133 27.7188 33.8706 24.3807 34.6949C22.6326 35.1283 20.846 35.6917 19.0034 36.0159C20.3521 37.2026 21.8005 38.3251 23.879 38.6042C29.0361 39.2942 32.2404 37.6898 33.9387 36.3618Z" fill="#2196F3"/>
<path d="M23.8788 38.6042C21.7959 38.3251 20.3519 37.2026 19.0032 36.016C16.9159 34.1792 15.0594 32.189 11.4154 32.9379C5.62198 34.1289 4.85978 40.9247 9.3333 45.2917C11.254 47.2864 13.7197 48.6822 16.4284 49.3079C19.137 49.9336 21.9709 49.7621 24.5828 48.8144C27.1946 47.8667 29.4709 46.1839 31.1327 43.9724C32.7945 41.7608 33.7696 39.1165 33.9385 36.3635C32.2402 37.6898 29.0358 39.2942 23.8788 38.6042Z" fill="#673AB7"/>
<path d="M26.9105 23.8962C26.1876 25.4331 32.6321 27.1381 33.4031 32.2419C33.7746 27.2178 27.8046 21.9962 26.9105 23.8962Z" fill="#2196F3"/>
<path d="M13.3649 30.3107C14.5267 29.8335 15.0784 28.5126 14.5972 27.3604C14.116 26.2083 12.784 25.6611 11.6222 26.1384C10.4604 26.6156 9.90867 27.9365 10.3899 29.0887C10.8712 30.2408 12.2031 30.7879 13.3649 30.3107Z" fill="#673AB7"/>
<path d="M18.5351 24.1103C19.0786 23.5714 19.0786 22.6977 18.5351 22.1587C17.9917 21.6198 17.1106 21.6198 16.5672 22.1587C16.0238 22.6977 16.0238 23.5714 16.5672 24.1103C17.1106 24.6492 17.9917 24.6492 18.5351 24.1103Z" fill="#2196F3"/>
<path d="M23.4513 15.2376C25.4617 9.3485 24.1103 4.64345 19.9786 2.40881C17.1544 2.97831 15.4779 4.334 14.5444 6.20544C20.0843 5.76077 23.5999 9.1994 23.4513 15.2376Z" fill="#2196F3"/>
<path d="M46.0001 10.0923C36.0487 6.55051 29.7685 7.76491 28.7808 15.8349C34.4841 21.6703 40.2286 18.8774 46.0001 10.0923Z" fill="#2196F3"/>
<path d="M38.0851 6.89635C38.5466 4.94082 38.7861 2.6299 38.8219 0C28.5017 2.27885 23.8473 6.6337 27.3584 13.9782C27.5333 14.0198 27.7011 14.0536 27.8698 14.0883C28.6905 8.34132 32.3031 6.2133 38.0851 6.89635Z" fill="#2196F3"/>
</g>
<defs>
<clipPath id="clip0">
<rect width="46" height="55" fill="white"/>
</clipPath>
</defs>
</path></svg>
